<?xml version="1.0" encoding="UTF-8"?>
<!DOCTYPE svg PUBLIC "-//W3C//DTD SVG 1.1//EN" "http://www.w3.org/Graphics/SVG/1.1/DTD/svg11.dtd">
<!-- Creator: CorelDRAW 2019 (64 Bit Versão de avaliação) -->
<svg xmlns="http://www.w3.org/2000/svg" xml:space="preserve" width="4.5045mm" height="3.5847mm" version="1.1" style="shape-rendering:geometricPrecision; text-rendering:geometricPrecision; image-rendering:optimizeQuality; fill-rule:evenodd; clip-rule:evenodd"
viewBox="0 0 3.76 2.99"
 xmlns:xlink="http://www.w3.org/1999/xlink">
 <defs>
  <style type="text/css">
   <![CDATA[
    .fil0 {fill:#FEFEFE}
   ]]>
  </style>
 </defs>
 <g id="Camada_x0020_1">
  <metadata id="CorelCorpID_0Corel-Layer"/>
  <g id="_2880983401040">
   <path class="fil0" d="M1.88 0.6l-1.34 1.11c0,0 -0,0 -0,0.01 -0,0 -0,0.01 -0,0.01l0 1.12c0,0.04 0.01,0.08 0.04,0.11 0.03,0.03 0.06,0.04 0.11,0.04l0.9 0 0 -0.9 0.6 0 0 0.9 0.9 0c0.04,0 0.08,-0.01 0.11,-0.04 0.03,-0.03 0.04,-0.06 0.04,-0.11l0 -1.12c0,-0.01 -0,-0.01 -0,-0.01l-1.34 -1.11z"/>
   <path class="fil0" d="M3.74 1.46l-0.51 -0.42 0 -0.95c0,-0.02 -0.01,-0.04 -0.02,-0.05 -0.01,-0.01 -0.03,-0.02 -0.05,-0.02l-0.45 0c-0.02,0 -0.04,0.01 -0.05,0.02 -0.01,0.01 -0.02,0.03 -0.02,0.05l0 0.46 -0.57 -0.48c-0.05,-0.04 -0.11,-0.06 -0.18,-0.06 -0.07,0 -0.13,0.02 -0.18,0.06l-1.68 1.4c-0.02,0.01 -0.02,0.03 -0.03,0.05 -0,0.02 0,0.04 0.02,0.05l0.14 0.17c0.01,0.01 0.03,0.02 0.05,0.03 0.02,0 0.04,-0 0.06,-0.02l1.62 -1.35 1.62 1.35c0.01,0.01 0.03,0.02 0.05,0.02l0.01 0c0.02,-0 0.04,-0.01 0.05,-0.03l0.14 -0.17c0.01,-0.02 0.02,-0.03 0.02,-0.05 -0,-0.02 -0.01,-0.04 -0.03,-0.05z"/>
  </g>
 </g>
</svg>
