<?xml version="1.0" encoding="UTF-8"?>
<!DOCTYPE svg PUBLIC "-//W3C//DTD SVG 1.1//EN" "http://www.w3.org/Graphics/SVG/1.1/DTD/svg11.dtd">
<!-- Creator: CorelDRAW 2019 (64 Bit Versão de avaliação) -->
<svg xmlns="http://www.w3.org/2000/svg" xml:space="preserve" width="4.1721mm" height="4.5464mm" version="1.1" style="shape-rendering:geometricPrecision; text-rendering:geometricPrecision; image-rendering:optimizeQuality; fill-rule:evenodd; clip-rule:evenodd"
viewBox="0 0 3.39 3.69"
 xmlns:xlink="http://www.w3.org/1999/xlink">
 <defs>
  <style type="text/css">
   <![CDATA[
    .fil0 {fill:#FEFEFE}
   ]]>
  </style>
 </defs>
 <g id="Camada_x0020_1">
  <metadata id="CorelCorpID_0Corel-Layer"/>
  <g id="_2880808614832">
   <path class="fil0" d="M0.32 2.16c0.14,0 0.29,0.02 0.38,-0.04 0.08,-0.05 0.16,-0.14 0.16,-0.27l0 -1.54 1.69 0 0 1.54c0,0.13 0.07,0.21 0.15,0.27 0.09,0.06 0.23,0.04 0.38,0.04l-0.94 0.84c-0.02,0.02 -0.03,0.02 -0.04,0.04l-0.13 0.12c-0.03,0.03 -0.06,0.05 -0.09,0.08 -0.02,0.02 -0.03,0.02 -0.04,0.04 -0.03,0.03 -0.1,0.1 -0.14,0.11l-0.08 -0.07c-0.02,-0.02 -0.02,-0.02 -0.04,-0.04l-0.21 -0.19c-0.02,-0.01 -0.02,-0.03 -0.04,-0.04 -0.02,-0.02 -0.02,-0.02 -0.04,-0.04l-0.09 -0.08c-0.02,-0.02 -0.02,-0.02 -0.04,-0.04 -0.02,-0.02 -0.02,-0.02 -0.04,-0.04l-0.13 -0.12c-0.02,-0.01 -0.02,-0.03 -0.04,-0.04l-0.3 -0.27c-0.02,-0.02 -0.02,-0.02 -0.04,-0.04l-0.17 -0.15c-0.02,-0.02 -0.03,-0.02 -0.04,-0.04 -0.02,-0.02 -0.03,-0.03 -0.04,-0.04zm0.22 -1.87l0 1.56 -0.25 0c-0.17,0 -0.37,0.21 -0.25,0.46 0.03,0.06 0.06,0.08 0.09,0.11l0.21 0.19c0.06,0.06 0.26,0.23 0.32,0.28l0.58 0.52c0.02,0.02 0.03,0.03 0.05,0.05l0.11 0.1c0.11,0.08 0.12,0.14 0.3,0.14 0.13,0 0.26,-0.14 0.36,-0.24l1.22 -1.08c0.12,-0.13 0.12,-0.3 0,-0.43 -0.1,-0.12 -0.3,-0.09 -0.46,-0.09l0 -1.56c0,-0.07 -0.05,-0.16 -0.09,-0.19 -0.04,-0.04 -0.12,-0.09 -0.19,-0.09l-1.74 0c-0.07,0 -0.16,0.05 -0.19,0.09 -0.04,0.04 -0.09,0.12 -0.09,0.2z"/>
   <path class="fil0" d="M1.53 0.87c-0.08,0.01 -0.21,0.11 -0.26,0.18 -0.27,0.34 -0.05,0.79 0.31,0.87 0.06,0.01 0.13,0.01 0.17,0.02 0.25,0.07 0.2,0.45 -0.05,0.45 -0.12,0 -0.21,-0.06 -0.24,-0.17 -0.01,-0.04 0,-0.21 -0.17,-0.21 -0.08,0 -0.15,0.07 -0.15,0.15 0,0.13 0.05,0.26 0.11,0.33 0.07,0.08 0.16,0.16 0.27,0.19 0,0.08 -0.01,0.13 0.03,0.18 0.06,0.1 0.21,0.1 0.26,0 0.03,-0.06 0.03,-0.1 0.03,-0.18 0.28,-0.06 0.52,-0.45 0.29,-0.82 -0.07,-0.12 -0.21,-0.2 -0.34,-0.23 -0.11,-0.02 -0.19,0.01 -0.28,-0.1 -0.18,-0.21 0.15,-0.53 0.36,-0.28 0.08,0.1 0.02,0.22 0.13,0.28 0.03,0.02 0.07,0.02 0.11,0.01 0.21,-0.05 0.14,-0.41 -0.11,-0.59 -0.03,-0.02 -0.11,-0.07 -0.15,-0.07 0,-0.07 0,-0.14 -0.02,-0.18 -0.05,-0.09 -0.19,-0.12 -0.27,-0.01 -0.03,0.05 -0.03,0.11 -0.03,0.19z"/>
  </g>
 </g>
</svg>
