<?xml version="1.0" encoding="UTF-8"?>
<!DOCTYPE svg PUBLIC "-//W3C//DTD SVG 1.1//EN" "http://www.w3.org/Graphics/SVG/1.1/DTD/svg11.dtd">
<!-- Creator: CorelDRAW 2019 (64 Bit Versão de avaliação) -->
<svg xmlns="http://www.w3.org/2000/svg" xml:space="preserve" width="5.4512mm" height="4.6461mm" version="1.1" style="shape-rendering:geometricPrecision; text-rendering:geometricPrecision; image-rendering:optimizeQuality; fill-rule:evenodd; clip-rule:evenodd"
viewBox="0 0 5.95 5.07"
 xmlns:xlink="http://www.w3.org/1999/xlink">
 <defs>
  <style type="text/css">
   <![CDATA[
    .fil0 {fill:#FEFEFE}
   ]]>
  </style>
 </defs>
 <g id="Camada_x0020_1">
  <metadata id="CorelCorpID_0Corel-Layer"/>
  <g id="_2880940100272">
   <path class="fil0" d="M4.46 0.23c0,0.15 0.24,0.28 0.34,0.42l-2.09 2.09c-0.06,-0.04 -0.7,-0.7 -0.81,-0.81 -0.19,-0.19 -0.34,-0.34 -0.59,-0.09l-0.58 0.58c-0.13,0.1 -0.43,0.42 -0.58,0.57 -0.1,0.1 -0.14,0.19 -0.14,0.27l0 0.03c0.01,0.2 0.23,0.34 0.35,0.34 0.17,0 0.26,-0.13 0.35,-0.22 0.1,-0.1 0.19,-0.19 0.28,-0.28 0.08,-0.08 0.52,-0.53 0.57,-0.57 0.05,0.03 0.46,0.46 0.54,0.54 0.09,0.09 0.18,0.18 0.27,0.27 0.11,0.11 0.16,0.21 0.36,0.21 0.14,0 0.28,-0.17 0.36,-0.25 0.21,-0.21 2.15,-2.13 2.19,-2.2 0.15,0.1 0.26,0.34 0.42,0.34 0.26,0 0.19,-0.39 0.21,-0.55l0.03 -0.75c0,-0.13 -0.15,-0.19 -0.29,-0.17 -0.17,0.03 -1,0.02 -1.11,0.08 -0.04,0.02 -0.09,0.09 -0.09,0.15z"/>
   <path class="fil0" d="M4.39 2.54l0 2.37c0,0.1 0.05,0.15 0.15,0.15l0.67 0c0.1,0 0.15,-0.05 0.15,-0.15l0 -3.18c0,-0.03 -0.06,-0.08 -0.08,-0.09 -0.05,0.03 -0.68,0.67 -0.79,0.78 -0.03,0.03 -0.11,0.09 -0.11,0.12z"/>
   <path class="fil0" d="M3.07 3.86l0 1.11c0,0.05 0.07,0.09 0.14,0.09l0.69 0c0.19,0 0.14,-0.19 0.14,-0.43l0 -1.73c-0.05,0.01 -0.09,0.07 -0.12,0.11l-0.78 0.78c-0.03,0.02 -0.06,0.03 -0.06,0.07z"/>
   <path class="fil0" d="M1.87 5.06c0.14,0 0.71,0.02 0.78,-0.02 0.02,-0.01 0.05,-0.05 0.05,-0.07l0 -1.03c-0.13,0 -0.23,-0.04 -0.32,-0.09 -0.18,-0.11 -0.53,-0.53 -0.65,-0.61l0 1.46c0,0.18 -0.04,0.36 0.14,0.36z"/>
   <path class="fil0" d="M0.39 3.98l-0 0.92c0,0.11 0.04,0.16 0.15,0.16l0.66 0c0.19,0 0.16,-0.13 0.16,-0.33l0 -1.49c-0.24,0.16 -0.53,0.69 -0.98,0.73z"/>
  </g>
 </g>
</svg>
