<?xml version="1.0" encoding="UTF-8"?>
<!DOCTYPE svg PUBLIC "-//W3C//DTD SVG 1.1//EN" "http://www.w3.org/Graphics/SVG/1.1/DTD/svg11.dtd">
<!-- Creator: CorelDRAW 2019 (64 Bit Versão de avaliação) -->
<svg xmlns="http://www.w3.org/2000/svg" xml:space="preserve" width="105.874mm" height="130.306mm" version="1.1" style="shape-rendering:geometricPrecision; text-rendering:geometricPrecision; image-rendering:optimizeQuality; fill-rule:evenodd; clip-rule:evenodd"
viewBox="0 0 2062.73 2538.74"
 xmlns:xlink="http://www.w3.org/1999/xlink">
 <defs>
  <style type="text/css">
   <![CDATA[
    .fil0 {fill:#ED3237}
   ]]>
  </style>
 </defs>
 <g id="Camada_x0020_1">
  <metadata id="CorelCorpID_0Corel-Layer"/>
  <g id="_2881041133104">
   <g>
    <g id="_34_18_">
     <g>
      <path class="fil0" d="M1904.05 317.34l-476.01 0 0 -158.67c0,-87.67 -71.01,-158.67 -158.67,-158.67l-476.01 0c-87.67,0 -158.67,71.01 -158.67,158.67l0 158.67 -476.01 -0c-87.67,0 -158.67,71.01 -158.67,158.67l0 158.67c0,87.59 71.01,158.59 158.51,158.67l1745.62 0c87.59,-0.08 158.59,-71.09 158.59,-158.67l0 -158.67c-0.01,-87.66 -71.01,-158.67 -158.68,-158.67zm-634.68 0l-476.01 0 0 -79.34c0,-43.79 35.54,-79.34 79.33,-79.34l317.34 0c43.79,0 79.33,35.54 79.33,79.34l0 79.34zm-1110.7 1904.06c0,175.25 142.09,317.34 317.34,317.34l1110.7 0c175.25,0 317.34,-142.09 317.34,-317.34l0 -1269.37 -1745.38 0 0 1269.37zm1190.04 -1031.36c0,-43.79 35.54,-79.34 79.34,-79.34 43.79,0 79.33,35.54 79.33,79.34l0 952.03c0,43.79 -35.54,79.34 -79.33,79.34 -43.79,0 -79.34,-35.54 -79.34,-79.34l0 -952.03zm-396.68 0c0,-43.79 35.54,-79.34 79.34,-79.34 43.8,0 79.33,35.54 79.33,79.34l0 952.03c0,43.79 -35.54,79.34 -79.33,79.34 -43.79,0 -79.34,-35.54 -79.34,-79.34l0 -952.03zm-396.68 0c0,-43.79 35.54,-79.34 79.34,-79.34 43.8,0 79.34,35.54 79.34,79.34l0 952.03c0,43.79 -35.54,79.34 -79.34,79.34 -43.8,0 -79.34,-35.54 -79.34,-79.34l0 -952.03z"/>
     </g>
    </g>
   </g>
   <g>
   </g>
   <g>
   </g>
   <g>
   </g>
   <g>
   </g>
   <g>
   </g>
   <g>
   </g>
   <g>
   </g>
   <g>
   </g>
   <g>
   </g>
   <g>
   </g>
   <g>
   </g>
   <g>
   </g>
   <g>
   </g>
   <g>
   </g>
   <g>
   </g>
  </g>
 </g>
</svg>
