<?xml version="1.0" encoding="UTF-8"?>
<!DOCTYPE svg PUBLIC "-//W3C//DTD SVG 1.1//EN" "http://www.w3.org/Graphics/SVG/1.1/DTD/svg11.dtd">
<!-- Creator: CorelDRAW 2019 (64 Bit Versão de avaliação) -->
<svg xmlns="http://www.w3.org/2000/svg" xml:space="preserve" width="4.3486mm" height="4.3486mm" version="1.1" style="shape-rendering:geometricPrecision; text-rendering:geometricPrecision; image-rendering:optimizeQuality; fill-rule:evenodd; clip-rule:evenodd"
viewBox="0 0 3.59 3.59"
 xmlns:xlink="http://www.w3.org/1999/xlink">
 <defs>
  <style type="text/css">
   <![CDATA[
    .fil0 {fill:#FEFEFE}
   ]]>
  </style>
 </defs>
 <g id="Camada_x0020_1">
  <metadata id="CorelCorpID_0Corel-Layer"/>
  <g id="_2880777722272">
   <path class="fil0" d="M1.77 1.67c0.13,0 0.14,-0.03 0.27,-0.09l1.24 -0.65c0.06,-0.03 0.17,-0.07 0.17,-0.15 0,-0.06 -0.1,-0.1 -0.17,-0.13l-0.83 -0.37c-0.03,-0.02 -0.07,-0.03 -0.1,-0.05 -0.12,-0.05 -0.45,-0.22 -0.54,-0.22 -0.07,0 -0.17,0.05 -0.23,0.08l-1.28 0.58c-0.06,0.03 -0.18,0.06 -0.14,0.15 0.03,0.06 0.2,0.14 0.28,0.18 0.04,0.02 0.06,0.04 0.1,0.06 0.23,0.11 0.48,0.26 0.71,0.37l0.41 0.22c0.03,0.01 0.08,0.04 0.12,0.04z"/>
   <path class="fil0" d="M-0 1.18l0 1.49c0,0.15 0.21,0.21 0.33,0.28l0.2 0.11c0.15,0.07 0.34,0.19 0.5,0.27l0.31 0.16c0.06,0.04 0.16,0.1 0.23,0.1 0.04,0 0.09,-0.04 0.09,-0.09l0 -1.51c0,-0.13 -0.14,-0.18 -0.23,-0.23 -0.04,-0.02 -0.06,-0.04 -0.1,-0.05l-0.81 -0.42c-0.03,-0.02 -0.39,-0.2 -0.41,-0.2 -0.06,0 -0.11,0.03 -0.11,0.09z"/>
   <path class="fil0" d="M1.92 1.99l0 1.51c0,0.06 0.04,0.09 0.1,0.09 0.05,0 0.16,-0.07 0.21,-0.1 0.07,-0.04 0.13,-0.07 0.21,-0.11 0.04,-0.02 0.06,-0.04 0.1,-0.05l0.41 -0.22c0.04,-0.02 0.06,-0.03 0.1,-0.05l0.21 -0.11c0.13,-0.08 0.34,-0.14 0.34,-0.29l0 -1.49c0,-0.05 -0.05,-0.09 -0.11,-0.09 -0.04,0 -0.43,0.21 -0.51,0.25l-0.31 0.16c-0.04,0.02 -0.06,0.04 -0.1,0.05 -0.03,0.02 -0.06,0.03 -0.1,0.05l-0.41 0.21c-0.06,0.03 -0.13,0.09 -0.13,0.18z"/>
  </g>
 </g>
</svg>
