<?xml version="1.0" encoding="UTF-8"?>
<!DOCTYPE svg PUBLIC "-//W3C//DTD SVG 1.1//EN" "http://www.w3.org/Graphics/SVG/1.1/DTD/svg11.dtd">
<!-- Creator: CorelDRAW 2019 (64 Bit Versão de avaliação) -->
<svg xmlns="http://www.w3.org/2000/svg" xml:space="preserve" width="4.0686mm" height="4.0686mm" version="1.1" style="shape-rendering:geometricPrecision; text-rendering:geometricPrecision; image-rendering:optimizeQuality; fill-rule:evenodd; clip-rule:evenodd"
viewBox="0 0 3.07 3.07"
 xmlns:xlink="http://www.w3.org/1999/xlink">
 <defs>
  <style type="text/css">
   <![CDATA[
    .fil0 {fill:#FEFEFE}
   ]]>
  </style>
 </defs>
 <g id="Camada_x0020_1">
  <metadata id="CorelCorpID_0Corel-Layer"/>
  <g id="_2880940104816">
   <path class="fil0" d="M-0 3.07l2.11 0 0 -0.77 -0.29 0c-0.01,0 -0.09,-0 -0.1,0 -0,0 -0,0.17 -0,0.19 0,0.06 0,0.13 0,0.19l-1.34 0 0 -2.3 1.34 0 0 0.29c0,0.01 -0,0.09 0,0.1 0,0 0.17,0 0.19,0 0.06,0 0.13,0 0.19,0l0 -0.77 -2.11 0 0 3.07z"/>
   <path class="fil0" d="M2.3 0.77l0 0.38 -1.15 0 0 0.77 1.15 0 0 0.38c0.01,-0 0.09,-0.08 0.1,-0.09l0.48 -0.48c0.03,-0.03 0.06,-0.06 0.1,-0.1 0.01,-0.01 0.09,-0.09 0.1,-0.1 -0.01,-0.02 -0.65,-0.65 -0.76,-0.76 -0,-0 -0.01,-0.01 -0.01,-0z"/>
  </g>
 </g>
</svg>
